<?xml version="1.0" encoding="utf-8"?>
<!-- Generator: Adobe Illustrator 22.0.0, SVG Export Plug-In . SVG Version: 6.00 Build 0)  -->
<svg version="1.1" id="Layer_1" xmlns="http://www.w3.org/2000/svg" xmlns:xlink="http://www.w3.org/1999/xlink" x="0px" y="0px"
	 viewBox="0 0 896.2 880.4" style="enable-background:new 0 0 896.2 880.4;" xml:space="preserve">
<style type="text/css">
	.st0{fill:#39a2db;}
</style>

<path class="st0" d="M596.3,443.3c4.3,1,8.2,2.2,11.7,3.8v7.1c0,7.4-2.9,13.3-8.6,17.9c-5.7,4.5-13.3,6.8-22.8,6.8
	c-6.5,0-11.8-1.5-15.8-4.5c-4-3-6.1-7.2-6.1-12.6v-0.5c0-6.3,2.5-11.1,7.4-14.4c4.9-3.3,11.7-5,20.3-5
	C587.3,441.9,592,442.3,596.3,443.3z M362.5,436.9c0-10-1.4-19.6-4.1-28.8c-2.7-9.2-6.9-17.3-12.6-24.4
	c-5.7-7.1-12.8-12.7-21.4-16.9c-8.6-4.2-18.7-6.3-30.5-6.3c-10.2,0-19.5,1.9-28.1,5.8c-8.6,3.9-15.9,9.1-22.1,15.8
	c-6.1,6.7-10.9,14.4-14.3,23.4c-3.4,8.9-5.1,18.4-5.1,28.4v0.5c0,10.7,1.8,20.5,5.5,29.4c3.7,8.9,8.8,16.6,15.4,23.1
	c6.6,6.5,14.4,11.5,23.4,15c9,3.5,18.8,5.2,29.3,5.2c12.8,0,23.9-2.3,33.4-7c9.5-4.6,17.5-11.1,24.2-19.3l-22.9-20.2
	c-5.6,5.1-11,8.8-16.3,11c-5.2,2.3-11.2,3.4-17.9,3.4c-8.9,0-16.4-2.3-22.5-7c-6-4.6-10-11.5-11.9-20.6h98c0.2-1.9,0.3-3.8,0.4-5.5
	C362.4,440.1,362.5,438.4,362.5,436.9z M416.9,319.6H377v184.2h39.9V319.6z M645.8,422.2c0-9.5-1.2-18-3.7-25.6
	c-2.4-7.6-6.3-14.1-11.6-19.3c-5.1-5.1-11.5-9-19.3-11.7c-7.8-2.7-17.2-4.1-28.2-4.1c-11.9,0-22.1,1-30.5,3
	c-4.5,1.1-8.9,2.4-13.2,3.9l4.9,32.8c4.3-1.4,8.5-2.7,12.6-3.6c5.9-1.3,12.6-2,20.4-2c10,0,17.5,2.2,22.6,6.6
	c5.1,4.4,7.6,10.8,7.6,19.2v2.4c-5.1-1.8-10.3-3.2-15.6-4.2c-5.3-1.1-11.6-1.6-18.8-1.6c-8.4,0-16.1,0.9-23,2.8
	c-6.9,1.8-12.9,4.6-17.9,8.3c-5,3.7-8.9,8.3-11.7,13.9c-2.8,5.6-4.2,12.3-4.2,20v0.5c0,7,1.3,13.2,3.8,18.5c2.5,5.3,6,9.8,10.4,13.5
	c4.4,3.7,9.5,6.4,15.4,8.3c5.9,1.8,12.1,2.8,18.8,2.8c9.8,0,18.1-1.6,25-4.9c6.8-3.2,12.7-7.6,17.6-13v15.2h38.6V422.2z
	 M769.2,460.5c0-6.5-1.3-12-3.9-16.5c-2.6-4.5-5.9-8.4-10-11.6c-4-3.2-8.6-5.8-13.6-8c-5.1-2.2-10.1-4.1-15-5.6
	c-3.9-1.4-7.5-2.7-10.9-3.8c-3.4-1.1-6.4-2.4-9.1-3.7c-2.6-1.3-4.7-2.7-6.3-4.2c-1.6-1.5-2.4-3.2-2.4-5.1v-0.5c0-2.8,1.2-5.1,3.7-7
	c2.5-1.8,6.1-2.8,11-2.8c5.1,0,10.9,1.2,17.6,3.5c6.5,2.3,16.2,7.1,23.1,11.1l12.5-29.1c-7.7-5.1-16.1-9.1-25.3-11.9
	c-9.2-2.9-18.3-4.3-27.2-4.3c-7,0-13.7,1-20,2.9c-6.3,1.9-11.8,4.8-16.4,8.7c-4.6,3.9-8.3,8.5-11,14c-2.7,5.5-4.1,11.9-4.1,19v0.5
	c0,6.8,1.3,12.6,3.8,17.3c2.5,4.7,5.8,8.7,9.8,11.9c4,3.2,8.5,5.9,13.5,7.9c5,2,9.9,3.7,14.8,5.1c3.8,1.2,7.5,2.4,11,3.4
	c3.5,1,6.6,2.1,9.3,3.3c2.7,1.1,4.9,2.5,6.4,4.1c1.6,1.6,2.4,3.4,2.4,5.5v0.5c0,3.2-1.4,5.7-4.1,7.6c-2.7,1.9-7,2.9-12.7,2.9
	c-6.7,0-13.8-1.4-21.4-4.2c-7.4-2.7-16.5-8-25-14.1l-12.7,29.4c8.7,6.4,17.9,11.3,27.4,14.4c10.4,3.4,20.6,5.1,30.6,5.1
	c7.7,0,14.8-0.9,21.3-2.8c6.5-1.8,12.2-4.6,17.1-8.3c4.9-3.7,8.7-8.4,11.4-14.1c2.7-5.7,4.1-12.5,4.1-20.4V460.5z M830.6,506.2
	L830.6,506.2l-264.1,68.3L566,685.1L291.6,880.4l-56.1-184.5l-105.3,80.9l-107-218.7l157-59.1c6-2,11.4-4.6,16-7.8
	c6-4.2,10.7-9.5,13.9-15.8c3.2-6.3,4.8-13.7,4.8-22.1v-0.5c0-6.1-0.8-11.6-2.4-16.3c-1.6-4.7-3.8-8.9-6.8-12.5
	c-3-3.6-6.6-6.7-10.9-9.3c-4.3-2.6-9-5-14.2-7.1c6.6-3.7,12.3-8.6,17-14.8c4.7-6.2,7-14.5,7-24.8v-0.5c0-12.4-4.2-22.9-12.6-31.3
	c-10.8-10.9-26.8-16.3-48-16.3H58.9v125.4L0,419.4l105.9-246.9l109.6,62.7L172.1,81.1L467.4,0l47.2,312.6c-2.1-0.5-4.4-1-6.7-1.3
	c-4.5-0.7-9.8-1.1-16.1-1.1c-14.2,0-25,3.7-32.3,11c-7.5,7.5-11.3,18.9-11.3,34.1v9.2h-16.6v32.6h16.6v106.6h39.9V397.2h39.3
	l-4.8-32.6h-35v-5.5c0-10.2,4.8-15.2,14.4-15.2c3.5,0,6.6,0.3,9.5,0.9c2.7,0.6,5.5,1.5,8.4,2.5l376.2-141.5l-34.3,157.2h-32v-36
	h-39.9v36H773v34.1h16.8v66.7c0,8.1,1,14.8,3,20.2c2,5.4,4.8,9.8,8.4,13.1c3.6,3.3,7.9,5.6,12.9,7
	C819.1,505.5,824.5,506.2,830.6,506.2z M293.9,392.5c-8.4,0-15.2,2.7-20.4,8.1c-5.2,5.4-8.5,12.7-10.1,21.8h60.1
	c-1.2-8.9-4.4-16.2-9.5-21.7C309.1,395.2,302.3,392.5,293.9,392.5z M829.8,397.2v59.9c0,7.4,2.9,11.8,8.6,13.2l16-73.1H829.8z
	 M164.7,374.9v-0.5c0-6.1-2.3-10.8-6.8-14.1c-4.6-3.2-11.1-4.9-19.7-4.9H98.2v38.9h37.3c8.9,0,16-1.5,21.3-4.6
	C162.1,386.7,164.7,381.7,164.7,374.9z M98.2,462.8l12.6,5.6h35.4c8.9,0,15.9-1.6,21-4.9c5.1-3.2,7.6-8.3,7.6-15.1v-0.5
	c0-6.1-2.4-11-7.1-14.6c-4.7-3.6-12.3-5.4-22.8-5.4H98.2V462.8z"/>
</svg>
